<?xml version="1.0" encoding="UTF-8" standalone="no"?>
<!-- Created by diasvg.py -->
<svg width="26.866cm" height="11.360cm" viewBox="12.339 9.205 39.205 20.565"
 xmlns="http://www.w3.org/2000/svg"
 xmlns:xlink="http://www.w3.org/1999/xlink">
<ellipse cx="33.172" cy="16.348" rx="5.983" ry="1.968" fill="#FFFFFF" stroke="none"  /><ellipse cx="33.172" cy="16.348" rx="5.983" ry="1.968" fill="none" stroke="#000000"  stroke-width="0.100" /><text x="33.172" y="16.143"  fill="#000000" text-anchor="middle" font-size="0.80" font-family="sans" font-style="normal" font-weight="400">
Подсистема отображения</text>
<text x="33.172" y="16.943"  fill="#000000" text-anchor="middle" font-size="0.80" font-family="sans" font-style="normal" font-weight="400">
результатов</text>
<rect x="12.389" y="11.400" width="5.823" height="1.900" fill="#FFFFFF" stroke="none" stroke-width="0"/>
<rect x="12.389" y="11.400" width="5.823" height="1.900" fill="none" stroke="#000000" stroke-width="0.100" />
<text x="15.300" y="12.545"  fill="#000000" text-anchor="middle" font-size="0.80" font-family="sans" font-style="normal" font-weight="400">
Пользователь</text>
<path stroke="#000000" fill="none" stroke-width="0.100"  d ="M 31.813,14.389 A 12.278,12.278 0 0,0 17.160,11.252 "/>
<polyline fill="none" stroke="#000000" stroke-width="0.100"  points="17.394,10.853 17.059,11.300 17.618,11.300 "/>
<text x="19.100" y="9.800"  fill="#000000" text-anchor="start" font-size="0.80" font-family="sans" font-style="normal" font-weight="400">
Изображение с камеры</text>
<path stroke="#000000" fill="none" stroke-width="0.100"  d ="M 16.773,13.479 A 19.802,19.802 0 0,0 27.479,17.008 "/>
<polyline fill="none" stroke="#000000" stroke-width="0.100"  points="17.233,13.501 16.681,13.415 16.943,13.909 "/>
<text x="18.850" y="14.400"  fill="#000000" text-anchor="start" font-size="0.80" font-family="sans" font-style="normal" font-weight="400">
Выделенная область лица</text>
<path stroke="#000000" fill="none" stroke-width="0.100"  d ="M 15.811,13.551 A 10.824,10.824 0 0,0 30.746,18.182 "/>
<polyline fill="none" stroke="#000000" stroke-width="0.100"  points="16.201,13.796 15.762,13.451 15.750,14.010 "/>
<text x="18.400" y="20.413"  fill="#000000" text-anchor="start" font-size="0.80" font-family="sans" font-style="normal" font-weight="400">
Решение о принадлежности лица</text>
</svg>