<?xml version="1.0" encoding="UTF-8" standalone="no"?>
<!-- Created by diasvg.py -->
<svg width="24.562cm" height="13.618cm" viewBox="5.750 1.383 30.312 15.000"
 xmlns="http://www.w3.org/2000/svg"
 xmlns:xlink="http://www.w3.org/1999/xlink">
<rect x="10.100" y="3.150" width="2.950" height="2.850" fill="#FFFFFF" stroke="none" stroke-width="0"/>
<rect x="10.100" y="3.150" width="2.950" height="2.850" fill="none" stroke="#000000" stroke-width="0.100" />
<text x="11.575" y="4.770"  fill="#000000" text-anchor="middle" font-size="0.80" font-family="sans" font-style="normal" font-weight="400">
X1</text>
<rect x="10.100" y="6.030" width="2.950" height="2.850" fill="#FFFFFF" stroke="none" stroke-width="0"/>
<rect x="10.100" y="6.030" width="2.950" height="2.850" fill="none" stroke="#000000" stroke-width="0.100" />
<text x="11.575" y="7.650"  fill="#000000" text-anchor="middle" font-size="0.80" font-family="sans" font-style="normal" font-weight="400">
X2</text>
<rect x="10.100" y="8.910" width="2.950" height="2.850" fill="#FFFFFF" stroke="none" stroke-width="0"/>
<rect x="10.100" y="8.910" width="2.950" height="2.850" fill="none" stroke="#000000" stroke-width="0.100" />
<text x="11.575" y="10.530"  fill="#000000" text-anchor="middle" font-size="0.80" font-family="sans" font-style="normal" font-weight="400">
...</text>
<rect x="10.100" y="11.790" width="2.950" height="2.850" fill="#FFFFFF" stroke="none" stroke-width="0"/>
<rect x="10.100" y="11.790" width="2.950" height="2.850" fill="none" stroke="#000000" stroke-width="0.100" />
<text x="11.575" y="13.410"  fill="#000000" text-anchor="middle" font-size="0.80" font-family="sans" font-style="normal" font-weight="400">
Xn</text>
<rect x="20.850" y="6.350" width="4.900" height="4.900" fill="#FFFFFF" stroke="none" stroke-width="0"/>
<rect x="20.850" y="6.350" width="4.900" height="4.900" fill="none" stroke="#000000" stroke-width="0.100" />
<text x="23.300" y="8.995"  fill="#000000" text-anchor="middle" font-size="0.80" font-family="sans" font-style="normal" font-weight="400">
Сумматор</text>
<polyline fill="none" stroke="#000000" stroke-width="0.100"  points="10.100,3.150 9.100,3.150 9.100,14.640 10.100,14.640 "/>
<line x1="9.100" y1="9.000" x2="6.850" y2="9.050" stroke="#000000" stroke-width="0.100" />
<text x="5.750" y="9.400"  fill="#000000" text-anchor="start" font-size="1.44" font-family="sans" font-style="normal" font-weight="400">
X</text>
<polyline fill="none" stroke="#000000" stroke-width="0.100"  points="13.050,4.575 16.950,4.575 16.950,8.800 20.626,8.800 "/>
<polyline fill="none" stroke="#000000" stroke-width="0.100"  points="20.238,9.050 20.738,8.800 20.238,8.550 "/>
<polyline fill="none" stroke="#000000" stroke-width="0.100"  points="13.050,7.455 16.950,7.455 16.950,8.800 20.626,8.800 "/>
<polyline fill="none" stroke="#000000" stroke-width="0.100"  points="20.238,9.050 20.738,8.800 20.238,8.550 "/>
<polyline fill="none" stroke="#000000" stroke-width="0.100"  points="13.050,10.335 16.950,10.335 16.950,8.800 20.626,8.800 "/>
<polyline fill="none" stroke="#000000" stroke-width="0.100"  points="20.238,9.050 20.738,8.800 20.238,8.550 "/>
<polyline fill="none" stroke="#000000" stroke-width="0.100"  points="13.050,13.215 16.950,13.215 16.950,8.800 20.626,8.800 "/>
<polyline fill="none" stroke="#000000" stroke-width="0.100"  points="20.238,9.050 20.738,8.800 20.238,8.550 "/>
<rect x="13.900" y="2.950" width="2.050" height="12.000" fill="none" stroke="#000000" stroke-width="0.100" stroke-dasharray="1.00,1.00"/>
<text x="14.350" y="2.450"  fill="#000000" text-anchor="start" font-size="1.44" font-family="sans" font-style="normal" font-weight="400">
W</text>
<text x="14.350" y="4.200"  fill="#000000" text-anchor="start" font-size="0.80" font-family="sans" font-style="normal" font-weight="400">
W1</text>
<text x="14.400" y="7.050"  fill="#000000" text-anchor="start" font-size="0.80" font-family="sans" font-style="normal" font-weight="400">
W2</text>
<text x="14.450" y="12.850"  fill="#000000" text-anchor="start" font-size="0.80" font-family="sans" font-style="normal" font-weight="400">
Wn</text>
<text x="14.750" y="9.950"  fill="#000000" text-anchor="start" font-size="0.80" font-family="sans" font-style="normal" font-weight="400">
...</text>
<line x1="25.750" y1="8.800" x2="29.976" y2="8.800" stroke="#000000" stroke-width="0.100" />
<polyline fill="none" stroke="#000000" stroke-width="0.100"  points="29.588,9.050 30.088,8.800 29.588,8.550 "/>
<text x="26.300" y="8.350"  fill="#000000" text-anchor="start" font-size="0.80" font-family="sans" font-style="normal" font-weight="400">
NET = XW</text>
</svg>