<?xml version="1.0" encoding="UTF-8" standalone="no"?>
<!-- Created by diasvg.py -->
<svg width="39.442cm" height="23.457cm" viewBox="2.705 0.497 42.147 23.953"
 xmlns="http://www.w3.org/2000/svg"
 xmlns:xlink="http://www.w3.org/1999/xlink">
<ellipse cx="22.422" cy="2.398" rx="2.128" ry="1.852" fill="#FFFFFF" stroke="none"  /><ellipse cx="22.422" cy="2.398" rx="2.128" ry="1.852" fill="none" stroke="#000000"  stroke-width="0.100" /><text x="22.422" y="2.593"  fill="#000000" text-anchor="middle" font-size="0.80" font-family="sans" font-style="normal" font-weight="400">
Цель</text>
<ellipse cx="4.883" cy="12.352" rx="2.128" ry="1.852" fill="#FFFFFF" stroke="none"  /><ellipse cx="4.883" cy="12.352" rx="2.128" ry="1.852" fill="none" stroke="#000000"  stroke-width="0.100" /><text x="4.883" y="12.547"  fill="#000000" text-anchor="middle" font-size="0.80" font-family="sans" font-style="normal" font-weight="400">
а</text>
<ellipse cx="10.138" cy="12.452" rx="2.128" ry="1.852" fill="#FFFFFF" stroke="none"  /><ellipse cx="10.138" cy="12.452" rx="2.128" ry="1.852" fill="none" stroke="#000000"  stroke-width="0.100" /><text x="10.138" y="12.647"  fill="#000000" text-anchor="middle" font-size="0.80" font-family="sans" font-style="normal" font-weight="400">
б</text>
<ellipse cx="15.093" cy="12.402" rx="2.128" ry="1.852" fill="#FFFFFF" stroke="none"  /><ellipse cx="15.093" cy="12.402" rx="2.128" ry="1.852" fill="none" stroke="#000000"  stroke-width="0.100" /><text x="15.093" y="12.597"  fill="#000000" text-anchor="middle" font-size="0.80" font-family="sans" font-style="normal" font-weight="400">
в</text>
<ellipse cx="19.998" cy="12.502" rx="2.128" ry="1.852" fill="#FFFFFF" stroke="none"  /><ellipse cx="19.998" cy="12.502" rx="2.128" ry="1.852" fill="none" stroke="#000000"  stroke-width="0.100" /><text x="19.998" y="12.697"  fill="#000000" text-anchor="middle" font-size="0.80" font-family="sans" font-style="normal" font-weight="400">
г</text>
<ellipse cx="25.003" cy="12.502" rx="2.128" ry="1.852" fill="#FFFFFF" stroke="none"  /><ellipse cx="25.003" cy="12.502" rx="2.128" ry="1.852" fill="none" stroke="#000000"  stroke-width="0.100" /><text x="25.003" y="12.697"  fill="#000000" text-anchor="middle" font-size="0.80" font-family="sans" font-style="normal" font-weight="400">
д</text>
<ellipse cx="30.158" cy="12.502" rx="2.128" ry="1.852" fill="#FFFFFF" stroke="none"  /><ellipse cx="30.158" cy="12.502" rx="2.128" ry="1.852" fill="none" stroke="#000000"  stroke-width="0.100" /><text x="30.158" y="12.697"  fill="#000000" text-anchor="middle" font-size="0.80" font-family="sans" font-style="normal" font-weight="400">
е</text>
<ellipse cx="35.113" cy="12.402" rx="2.128" ry="1.852" fill="#FFFFFF" stroke="none"  /><ellipse cx="35.113" cy="12.402" rx="2.128" ry="1.852" fill="none" stroke="#000000"  stroke-width="0.100" /><text x="35.113" y="12.597"  fill="#000000" text-anchor="middle" font-size="0.80" font-family="sans" font-style="normal" font-weight="400">
ж</text>
<ellipse cx="39.968" cy="12.402" rx="2.128" ry="1.852" fill="#FFFFFF" stroke="none"  /><ellipse cx="39.968" cy="12.402" rx="2.128" ry="1.852" fill="none" stroke="#000000"  stroke-width="0.100" /><text x="39.968" y="12.597"  fill="#000000" text-anchor="middle" font-size="0.80" font-family="sans" font-style="normal" font-weight="400">
з</text>
<ellipse cx="12.583" cy="22.002" rx="2.128" ry="1.852" fill="#FFFFFF" stroke="none"  /><ellipse cx="12.583" cy="22.002" rx="2.128" ry="1.852" fill="none" stroke="#000000"  stroke-width="0.100" /><text x="12.583" y="22.197"  fill="#000000" text-anchor="middle" font-size="0.80" font-family="sans" font-style="normal" font-weight="400">
C++</text>
<ellipse cx="17.688" cy="21.952" rx="2.128" ry="1.852" fill="#FFFFFF" stroke="none"  /><ellipse cx="17.688" cy="21.952" rx="2.128" ry="1.852" fill="none" stroke="#000000"  stroke-width="0.100" /><text x="17.688" y="22.147"  fill="#000000" text-anchor="middle" font-size="0.80" font-family="sans" font-style="normal" font-weight="400">
C#</text>
<ellipse cx="22.493" cy="21.952" rx="2.128" ry="1.852" fill="#FFFFFF" stroke="none"  /><ellipse cx="22.493" cy="21.952" rx="2.128" ry="1.852" fill="none" stroke="#000000"  stroke-width="0.100" /><text x="22.493" y="22.147"  fill="#000000" text-anchor="middle" font-size="0.80" font-family="sans" font-style="normal" font-weight="400">
Python</text>
<ellipse cx="27.548" cy="22.052" rx="2.128" ry="1.852" fill="#FFFFFF" stroke="none"  /><ellipse cx="27.548" cy="22.052" rx="2.128" ry="1.852" fill="none" stroke="#000000"  stroke-width="0.100" /><text x="27.548" y="22.247"  fill="#000000" text-anchor="middle" font-size="0.80" font-family="sans" font-style="normal" font-weight="400">
Delphi</text>
<ellipse cx="32.553" cy="22.002" rx="2.128" ry="1.852" fill="#FFFFFF" stroke="none"  /><ellipse cx="32.553" cy="22.002" rx="2.128" ry="1.852" fill="none" stroke="#000000"  stroke-width="0.100" /><text x="32.553" y="21.797"  fill="#000000" text-anchor="middle" font-size="0.80" font-family="sans" font-style="normal" font-weight="400">
Visual</text>
<text x="32.553" y="22.597"  fill="#000000" text-anchor="middle" font-size="0.80" font-family="sans" font-style="normal" font-weight="400">
Basic</text>
<line x1="4.883" y1="10.500" x2="20.095" y2="2.502" stroke="#000000" stroke-width="0.100" />
<polyline fill="none" stroke="#000000" stroke-width="0.100"  points="19.868,2.904 20.194,2.450 19.635,2.462 "/>
<line x1="10.138" y1="10.600" x2="20.274" y2="3.238" stroke="#000000" stroke-width="0.100" />
<polyline fill="none" stroke="#000000" stroke-width="0.100"  points="20.107,3.669 20.365,3.173 19.813,3.264 "/>
<line x1="15.093" y1="10.550" x2="20.772" y2="3.878" stroke="#000000" stroke-width="0.100" />
<polyline fill="none" stroke="#000000" stroke-width="0.100"  points="20.711,4.336 20.844,3.793 20.330,4.012 "/>
<line x1="19.998" y1="10.650" x2="21.554" y2="4.326" stroke="#000000" stroke-width="0.100" />
<polyline fill="none" stroke="#000000" stroke-width="0.100"  points="21.704,4.763 21.580,4.218 21.218,4.643 "/>
<line x1="25.003" y1="10.650" x2="23.294" y2="4.325" stroke="#000000" stroke-width="0.100" />
<polyline fill="none" stroke="#000000" stroke-width="0.100"  points="23.637,4.634 23.265,4.217 23.154,4.765 "/>
<line x1="30.158" y1="10.650" x2="24.076" y2="3.874" stroke="#000000" stroke-width="0.100" />
<polyline fill="none" stroke="#000000" stroke-width="0.100"  points="24.521,3.996 24.001,3.791 24.149,4.330 "/>
<line x1="35.113" y1="10.550" x2="24.572" y2="3.234" stroke="#000000" stroke-width="0.100" />
<polyline fill="none" stroke="#000000" stroke-width="0.100"  points="25.033,3.250 24.480,3.171 24.748,3.661 "/>
<line x1="39.968" y1="10.550" x2="24.748" y2="2.503" stroke="#000000" stroke-width="0.100" />
<polyline fill="none" stroke="#000000" stroke-width="0.100"  points="25.208,2.463 24.649,2.451 24.974,2.905 "/>
<line x1="4.900" y1="17.100" x2="40.100" y2="17.050" stroke="#000000" stroke-width="0.100" />
<line x1="4.950" y1="17.100" x2="4.889" y2="14.427" stroke="#000000" stroke-width="0.100" />
<polyline fill="none" stroke="#000000" stroke-width="0.100"  points="5.147,14.809 4.886,14.315 4.647,14.821 "/>
<line x1="40.050" y1="17.200" x2="40.004" y2="14.523" stroke="#000000" stroke-width="0.100" />
<polyline fill="none" stroke="#000000" stroke-width="0.100"  points="40.261,14.907 40.003,14.411 39.761,14.915 "/>
<line x1="10.139" y1="14.527" x2="10.150" y2="17.200" stroke="#000000" stroke-width="0.100" />
<polyline fill="none" stroke="#000000" stroke-width="0.100"  points="10.391,14.914 10.139,14.415 9.891,14.916 "/>
<line x1="15.098" y1="14.477" x2="15.150" y2="17.000" stroke="#000000" stroke-width="0.100" />
<polyline fill="none" stroke="#000000" stroke-width="0.100"  points="15.356,14.860 15.096,14.365 14.856,14.870 "/>
<line x1="19.999" y1="14.577" x2="20.000" y2="17.100" stroke="#000000" stroke-width="0.100" />
<polyline fill="none" stroke="#000000" stroke-width="0.100"  points="20.249,14.965 19.998,14.465 19.749,14.965 "/>
<line x1="25.007" y1="14.577" x2="25.050" y2="17.000" stroke="#000000" stroke-width="0.100" />
<polyline fill="none" stroke="#000000" stroke-width="0.100"  points="25.264,14.961 25.005,14.465 24.764,14.970 "/>
<line x1="30.154" y1="14.577" x2="30.100" y2="17.150" stroke="#000000" stroke-width="0.100" />
<polyline fill="none" stroke="#000000" stroke-width="0.100"  points="30.396,14.970 30.156,14.465 29.896,14.960 "/>
<line x1="35.112" y1="14.477" x2="35.100" y2="17.150" stroke="#000000" stroke-width="0.100" />
<polyline fill="none" stroke="#000000" stroke-width="0.100"  points="35.361,14.866 35.113,14.365 34.861,14.864 "/>
<line x1="12.583" y1="20.150" x2="12.599" y2="17.224" stroke="#000000" stroke-width="0.100" />
<polyline fill="none" stroke="#000000" stroke-width="0.100"  points="12.847,17.613 12.599,17.112 12.347,17.610 "/>
<line x1="17.688" y1="20.100" x2="17.745" y2="17.274" stroke="#000000" stroke-width="0.100" />
<polyline fill="none" stroke="#000000" stroke-width="0.100"  points="17.988,17.667 17.748,17.162 17.488,17.657 "/>
<line x1="22.493" y1="20.100" x2="22.500" y2="17.299" stroke="#000000" stroke-width="0.100" />
<polyline fill="none" stroke="#000000" stroke-width="0.100"  points="22.749,17.687 22.500,17.187 22.249,17.686 "/>
<line x1="27.548" y1="20.200" x2="27.550" y2="17.224" stroke="#000000" stroke-width="0.100" />
<polyline fill="none" stroke="#000000" stroke-width="0.100"  points="27.800,17.612 27.550,17.112 27.300,17.612 "/>
<line x1="32.553" y1="20.150" x2="32.504" y2="17.174" stroke="#000000" stroke-width="0.100" />
<polyline fill="none" stroke="#000000" stroke-width="0.100"  points="32.760,17.558 32.502,17.062 32.260,17.566 "/>
</svg>